<?xml version="1.0" encoding="UTF-8" standalone="no"?>
<svg
   viewBox="0 0 96 96"
   version="1.1"
   id="svg4"
   sodipodi:docname="ProjectLogo.svg"
   width="96"
   height="96"
   xml:space="preserve"
   inkscape:version="1.2.2 (b0a8486541, 2022-12-01)"
   inkscape:export-filename="ProjectLogo.png"
   inkscape:export-xdpi="96"
   inkscape:export-ydpi="96"
   xmlns:inkscape="http://www.inkscape.org/namespaces/inkscape"
   xmlns:sodipodi="http://sodipodi.sourceforge.net/DTD/sodipodi-0.dtd"
   xmlns="http://www.w3.org/2000/svg"
   xmlns:svg="http://www.w3.org/2000/svg"><defs
     id="defs8" /><sodipodi:namedview
     id="namedview6"
     pagecolor="#ffffff"
     bordercolor="#666666"
     borderopacity="1.0"
     inkscape:showpageshadow="2"
     inkscape:pageopacity="0.0"
     inkscape:pagecheckerboard="0"
     inkscape:deskcolor="#d1d1d1"
     showgrid="false"
     inkscape:zoom="1.4142136"
     inkscape:cx="-24.748737"
     inkscape:cy="70.710678"
     inkscape:window-width="3840"
     inkscape:window-height="2008"
     inkscape:window-x="0"
     inkscape:window-y="0"
     inkscape:window-maximized="1"
     inkscape:current-layer="svg4" /><!--! Font Awesome Free 6.5.1 by @fontawesome - https://fontawesome.com License - https://fontawesome.com/license/free (Icons: CC BY 4.0, Fonts: SIL OFL 1.1, Code: MIT License) Copyright 2023 Fonticons, Inc. --><path
     d="m 23.000001,12.248435 c 0,-3.740627 3.171873,-10.2484332 6.999999,-10.2484332 3.9375,0 7.000001,6.5078062 7.000001,10.2484332 v 7.251567 L 56.446875,32.460939 C 57.420314,33.10625 58,34.200002 58,35.370311 v 6.201562 c 0,1.192188 -1.170313,2.034376 -2.307812,1.662501 L 37.000001,36.999998 v 8.750001 l 6.299999,4.725 c 0.4375,0.328127 0.7,0.853127 0.7,1.399999 v 4.593752 c 0,0.853123 -0.689062,1.531248 -1.53125,1.531248 -0.142193,0 -0.284374,-0.02187 -0.426562,-0.05468 L 30,54.499999 17.957812,57.945313 C 17.815619,57.989062 17.673437,58 17.53125,58 16.678125,57.999995 16,57.310933 16,56.468746 v -4.593751 c 0,-0.546873 0.2625,-1.071873 0.7,-1.4 l 6.300001,-4.725 V 36.999998 L 4.3078125,43.234374 C 3.1703125,43.606249 2,42.764061 2,41.571873 V 35.370311 C 2,34.200002 2.5796875,33.10625 3.5531248,32.460939 L 23.000001,19.500002 Z"
     id="path2"
     style="stroke-width:0.109375" /><path
     d="M 94.500001,63.625 V 67 c 0,3.107805 -7.052339,5.625 -15.750001,5.625 C 70.05234,72.625 63,70.107805 63,67 V 63.625 C 63,60.51718 70.05234,58 78.75,58 c 8.697662,0 15.750001,2.51718 15.750001,5.625 z m -3.853125,9.47109 c 1.462491,-0.520305 2.805462,-1.188285 3.853125,-2.010931 V 78.25 c 0,3.107805 -7.052339,5.625 -15.750001,5.625 C 70.05234,83.875 63,81.357805 63,78.25 v -7.164841 c 1.04766,0.829681 2.390625,1.490626 3.853125,2.010931 3.157034,1.125001 7.361716,1.77891 11.896875,1.77891 4.535159,0 8.739841,-0.653909 11.896876,-1.77891 z M 63,82.33516 c 1.04766,0.829681 2.390625,1.490625 3.853125,2.010931 C 70.010159,85.47109 74.214841,86.125 78.75,86.125 c 4.535159,0 8.739841,-0.65391 11.896876,-1.778909 1.462491,-0.520306 2.805462,-1.188287 3.853125,-2.010931 V 88.375 C 94.500001,91.482805 87.447662,94 78.75,94 70.05234,94 63,91.482805 63,88.375 Z"
     id="path16"
     style="stroke-width:0.0703125" /><path
     d="M 49.428575,46 C 47.5375,46 46,47.537502 46,49.428574 V 66.571426 C 46,68.4625 47.5375,70 49.428575,70 H 66.571427 C 68.4625,70 70,68.4625 70,66.571426 V 53.569642 c 0,-0.910716 -0.358926,-1.783926 -1.001784,-2.426784 L 64.857142,47.001784 C 64.214286,46.358926 63.341074,46 62.430359,46 Z m 0,5.142858 c 0,-0.948214 0.766067,-1.714282 1.714283,-1.714282 h 10.285717 c 0.948209,0 1.714283,0.766068 1.714283,1.714282 v 3.428569 c 0,0.948215 -0.766073,1.714291 -1.714283,1.714291 H 51.142858 c -0.948216,0 -1.714283,-0.766076 -1.714283,-1.714291 z M 58,59.714286 a 3.4285713,3.4285713 0 1 1 0,6.857141 3.4285713,3.4285713 0 1 1 0,-6.857141 z"
     id="path129"
     style="stroke-width:0.0535714" /></svg>
