<?xml version="1.0" encoding="UTF-8" standalone="no"?>
<svg
   viewBox="0 0 96 96"
   version="1.1"
   id="svg4"
   sodipodi:docname="ProjectLogo.svg"
   width="96"
   height="96"
   xml:space="preserve"
   inkscape:version="1.2.2 (b0a8486541, 2022-12-01)"
   inkscape:export-filename="ProjectLogo.png"
   inkscape:export-xdpi="96"
   inkscape:export-ydpi="96"
   xmlns:inkscape="http://www.inkscape.org/namespaces/inkscape"
   xmlns:sodipodi="http://sodipodi.sourceforge.net/DTD/sodipodi-0.dtd"
   xmlns="http://www.w3.org/2000/svg"
   xmlns:svg="http://www.w3.org/2000/svg"><defs
     id="defs8" /><sodipodi:namedview
     id="namedview6"
     pagecolor="#ffffff"
     bordercolor="#666666"
     borderopacity="1.0"
     inkscape:showpageshadow="2"
     inkscape:pageopacity="0.0"
     inkscape:pagecheckerboard="0"
     inkscape:deskcolor="#d1d1d1"
     showgrid="false"
     inkscape:zoom="1.4142136"
     inkscape:cx="59.39697"
     inkscape:cy="45.254834"
     inkscape:window-width="3840"
     inkscape:window-height="2008"
     inkscape:window-x="0"
     inkscape:window-y="0"
     inkscape:window-maximized="1"
     inkscape:current-layer="svg4" /><!--! Font Awesome Free 6.5.1 by @fontawesome - https://fontawesome.com License - https://fontawesome.com/license/free (Icons: CC BY 4.0, Fonts: SIL OFL 1.1, Code: MIT License) Copyright 2023 Fonticons, Inc. --><path
     d="m 23.000001,12.248435 c 0,-3.740627 3.171873,-10.2484332 6.999999,-10.2484332 3.9375,0 7.000001,6.5078062 7.000001,10.2484332 v 7.251567 L 56.446875,32.460939 C 57.420314,33.10625 58,34.200002 58,35.370311 v 6.201562 c 0,1.192188 -1.170313,2.034376 -2.307812,1.662501 L 37.000001,36.999998 v 8.750001 l 6.299999,4.725 c 0.4375,0.328127 0.7,0.853127 0.7,1.399999 v 4.593752 c 0,0.853123 -0.689062,1.531248 -1.53125,1.531248 -0.142193,0 -0.284374,-0.02187 -0.426562,-0.05468 L 30,54.499999 17.957812,57.945313 C 17.815619,57.989062 17.673437,58 17.53125,58 16.678125,57.999995 16,57.310933 16,56.468746 v -4.593751 c 0,-0.546873 0.2625,-1.071873 0.7,-1.4 l 6.300001,-4.725 V 36.999998 L 4.3078125,43.234374 C 3.1703125,43.606249 2,42.764061 2,41.571873 V 35.370311 C 2,34.200002 2.5796875,33.10625 3.5531248,32.460939 L 23.000001,19.500002 Z"
     id="path2"
     style="stroke-width:0.109375" /><path
     d="m 94,58.562498 v 3.937507 c 0,3.625773 -8.227723,6.562499 -18.375001,6.562499 C 65.477724,69.062504 57.25,66.125778 57.25,62.500005 V 58.562498 C 57.25,54.936711 65.477724,52 75.624999,52 85.772277,52 94,54.936711 94,58.562498 Z M 89.504691,69.612104 C 91.210933,69.005088 92.777725,68.225775 94,67.266018 v 8.358984 c 0,3.625771 -8.227723,6.562497 -18.375001,6.562497 C 65.477724,82.187499 57.25,79.250773 57.25,75.625002 v -8.358984 c 1.222272,0.967959 2.789058,1.73907 4.49531,2.346086 3.683205,1.312506 8.588672,2.0754 13.879689,2.0754 5.291018,0 10.196485,-0.762894 13.879692,-2.0754 z M 57.25,80.391024 c 1.222272,0.96796 2.789058,1.73906 4.49531,2.346087 3.683205,1.312494 8.588672,2.075389 13.879689,2.075389 5.291018,0 10.196485,-0.762895 13.879692,-2.075389 C 91.210933,82.130084 92.777725,81.35077 94,80.391024 v 7.046478 C 94,91.063274 85.772277,94 75.624999,94 65.477724,94 57.25,91.063274 57.25,87.437502 Z"
     id="path16"
     style="stroke-width:0.082031" /><path
     d="M 66.339289,25 C 64.290624,25 62.625,26.665628 62.625,28.714288 V 47.285712 C 62.625,49.334376 64.290624,51 66.339289,51 H 84.910713 C 86.959376,51 88.625,49.334374 88.625,47.285712 V 33.200446 c 0,-0.98661 -0.388836,-1.932588 -1.085266,-2.629016 L 83.05357,26.085266 C 82.357144,25.388836 81.411164,25 80.424555,25 Z m 0,5.57143 c 0,-1.027232 0.829907,-1.85714 1.857141,-1.85714 h 11.142859 c 1.027227,0 1.857141,0.829908 1.857141,1.85714 v 3.714283 c 0,1.027233 -0.829913,1.857149 -1.857141,1.857149 H 68.19643 c -1.027234,0 -1.857141,-0.829916 -1.857141,-1.857149 z M 75.625,39.857144 a 3.7142855,3.7142855 0 1 1 0,7.428569 3.7142855,3.7142855 0 1 1 0,-7.428569 z"
     id="path129"
     style="stroke-width:0.0580356" /></svg>
