<?xml version="1.0" encoding="UTF-8" standalone="no"?>
<!-- Created with Inkscape (http://www.inkscape.org/) -->

<svg
   width="48"
   height="48"
   viewBox="0 0 12.7 12.7"
   version="1.1"
   id="svg4290"
   inkscape:version="1.2.2 (b0a8486541, 2022-12-01)"
   sodipodi:docname="arinc665_media_set_compile.svg"
   xmlns:inkscape="http://www.inkscape.org/namespaces/inkscape"
   xmlns:sodipodi="http://sodipodi.sourceforge.net/DTD/sodipodi-0.dtd"
   xmlns="http://www.w3.org/2000/svg"
   xmlns:svg="http://www.w3.org/2000/svg">
  <sodipodi:namedview
     id="namedview4292"
     pagecolor="#ffffff"
     bordercolor="#666666"
     borderopacity="1.0"
     inkscape:pageshadow="2"
     inkscape:pageopacity="0.0"
     inkscape:pagecheckerboard="0"
     inkscape:document-units="px"
     showgrid="true"
     units="px"
     fit-margin-top="0"
     fit-margin-left="0"
     fit-margin-right="0"
     fit-margin-bottom="0"
     inkscape:zoom="24.114396"
     inkscape:cx="36.637866"
     inkscape:cy="21.356537"
     inkscape:window-width="3840"
     inkscape:window-height="2007"
     inkscape:window-x="0"
     inkscape:window-y="0"
     inkscape:window-maximized="1"
     inkscape:current-layer="layer1"
     inkscape:showpageshadow="2"
     inkscape:deskcolor="#d1d1d1">
    <inkscape:grid
       type="xygrid"
       id="grid13"
       empspacing="8" />
  </sodipodi:namedview>
  <defs
     id="defs4287" />
  <g
     inkscape:label="Ebene 1"
     inkscape:groupmode="layer"
     id="layer1"
     transform="translate(-102.5981,-83.173336)">
    <g
       id="g596"
       transform="matrix(0.69999998,0,0,0.69999998,29.932766,24.846169)"
       style="stroke-width:1.42857">
      <g
         id="g401"
         transform="matrix(0.80000101,0,0,0.80000139,23.37701,16.317042)"
         style="stroke-width:1.7857">
        <path
           d="m 114.23976,87.759451 c 0,-0.36518 -0.20671,-0.868163 -0.46854,-1.129989 l -1.92925,-1.929251 c -0.26182,-0.261826 -0.76481,-0.468532 -1.12999,-0.468532 h -6.39408 c -0.36518,0 -0.66146,0.296278 -0.66146,0.661457 v 9.260401 c 0,0.365179 0.29628,0.661457 0.66146,0.661457 h 9.2604 c 0.36518,0 0.66146,-0.296278 0.66146,-0.661457 z"
           style="font-size:12.3472px;line-height:1.25;font-family:FontAwesome;-inkscape-font-specification:FontAwesome;letter-spacing:0px;word-spacing:0px;fill:#ffffff;stroke-width:0.47247"
           id="path130"
           sodipodi:nodetypes="sccssssssss" />
        <path
           d="m 106.30227,93.933051 v -2.645829 h 5.29166 v 2.645829 z m 6.1736,0 v -2.866314 c 0,-0.36518 -0.29628,-0.661457 -0.66146,-0.661457 h -5.73263 c -0.36518,0 -0.66145,0.296277 -0.66145,0.661457 v 2.866314 h -0.88195 v -8.819429 h 0.88195 v 2.866315 c 0,0.365179 0.29627,0.661457 0.66145,0.661457 h 3.96875 c 0.36518,0 0.66145,-0.296278 0.66145,-0.661457 v -2.866315 c 0.13781,0 0.40652,0.110243 0.50299,0.206706 l 1.93614,1.93614 c 0.0896,0.08957 0.2067,0.372069 0.2067,0.502983 v 6.1736 z m -2.64583,-6.394086 c 0,0.117133 -0.10335,0.220486 -0.22048,0.220486 h -1.32292 c -0.11713,0 -0.22048,-0.103353 -0.22048,-0.220486 v -2.204857 c 0,-0.117133 0.10335,-0.220486 0.22048,-0.220486 h 1.32292 c 0.11713,0 0.22048,0.103353 0.22048,0.220486 z m 4.40972,0.220486 c 0,-0.36518 -0.20671,-0.868163 -0.46854,-1.129989 l -1.92925,-1.929251 c -0.26182,-0.261826 -0.76481,-0.468532 -1.12999,-0.468532 h -6.39408 c -0.36518,0 -0.66146,0.296278 -0.66146,0.661457 v 9.260401 c 0,0.365179 0.29628,0.661457 0.66146,0.661457 h 9.2604 c 0.36518,0 0.66146,-0.296278 0.66146,-0.661457 z"
           style="font-size:12.3472px;line-height:1.25;font-family:FontAwesome;-inkscape-font-specification:FontAwesome;letter-spacing:0px;word-spacing:0px;fill:#000000;stroke-width:0.47247"
           id="path22" />
      </g>
      <g
         id="g579"
         transform="matrix(0.80000101,0,0,0.80000139,22.318677,17.375376)"
         style="stroke-width:1.7857">
        <path
           d="m 114.23976,87.759451 c 0,-0.36518 -0.20671,-0.868163 -0.46854,-1.129989 l -1.92925,-1.929251 c -0.26182,-0.261826 -0.76481,-0.468532 -1.12999,-0.468532 h -6.39408 c -0.36518,0 -0.66146,0.296278 -0.66146,0.661457 v 9.260401 c 0,0.365179 0.29628,0.661457 0.66146,0.661457 h 9.2604 c 0.36518,0 0.66146,-0.296278 0.66146,-0.661457 z"
           style="font-size:12.3472px;line-height:1.25;font-family:FontAwesome;-inkscape-font-specification:FontAwesome;letter-spacing:0px;word-spacing:0px;fill:#ffffff;stroke-width:0.47247"
           id="path575"
           sodipodi:nodetypes="sccssssssss" />
        <path
           d="m 106.30227,93.933051 v -2.645829 h 5.29166 v 2.645829 z m 6.1736,0 v -2.866314 c 0,-0.36518 -0.29628,-0.661457 -0.66146,-0.661457 h -5.73263 c -0.36518,0 -0.66145,0.296277 -0.66145,0.661457 v 2.866314 h -0.88195 v -8.819429 h 0.88195 v 2.866315 c 0,0.365179 0.29627,0.661457 0.66145,0.661457 h 3.96875 c 0.36518,0 0.66145,-0.296278 0.66145,-0.661457 v -2.866315 c 0.13781,0 0.40652,0.110243 0.50299,0.206706 l 1.93614,1.93614 c 0.0896,0.08957 0.2067,0.372069 0.2067,0.502983 v 6.1736 z m -2.64583,-6.394086 c 0,0.117133 -0.10335,0.220486 -0.22048,0.220486 h -1.32292 c -0.11713,0 -0.22048,-0.103353 -0.22048,-0.220486 v -2.204857 c 0,-0.117133 0.10335,-0.220486 0.22048,-0.220486 h 1.32292 c 0.11713,0 0.22048,0.103353 0.22048,0.220486 z m 4.40972,0.220486 c 0,-0.36518 -0.20671,-0.868163 -0.46854,-1.129989 l -1.92925,-1.929251 c -0.26182,-0.261826 -0.76481,-0.468532 -1.12999,-0.468532 h -6.39408 c -0.36518,0 -0.66146,0.296278 -0.66146,0.661457 v 9.260401 c 0,0.365179 0.29628,0.661457 0.66146,0.661457 h 9.2604 c 0.36518,0 0.66146,-0.296278 0.66146,-0.661457 z"
           style="font-size:12.3472px;line-height:1.25;font-family:FontAwesome;-inkscape-font-specification:FontAwesome;letter-spacing:0px;word-spacing:0px;fill:#000000;stroke-width:0.47247"
           id="path577" />
      </g>
      <g
         id="g585"
         transform="matrix(0.80000101,0,0,0.80000139,21.260343,18.433709)"
         style="stroke-width:1.7857">
        <path
           d="m 114.23976,87.759451 c 0,-0.36518 -0.20671,-0.868163 -0.46854,-1.129989 l -1.92925,-1.929251 c -0.26182,-0.261826 -0.76481,-0.468532 -1.12999,-0.468532 h -6.39408 c -0.36518,0 -0.66146,0.296278 -0.66146,0.661457 v 9.260401 c 0,0.365179 0.29628,0.661457 0.66146,0.661457 h 9.2604 c 0.36518,0 0.66146,-0.296278 0.66146,-0.661457 z"
           style="font-size:12.3472px;line-height:1.25;font-family:FontAwesome;-inkscape-font-specification:FontAwesome;letter-spacing:0px;word-spacing:0px;fill:#ffffff;stroke-width:0.47247"
           id="path581"
           sodipodi:nodetypes="sccssssssss" />
        <path
           d="m 106.30227,93.933051 v -2.645829 h 5.29166 v 2.645829 z m 6.1736,0 v -2.866314 c 0,-0.36518 -0.29628,-0.661457 -0.66146,-0.661457 h -5.73263 c -0.36518,0 -0.66145,0.296277 -0.66145,0.661457 v 2.866314 h -0.88195 v -8.819429 h 0.88195 v 2.866315 c 0,0.365179 0.29627,0.661457 0.66145,0.661457 h 3.96875 c 0.36518,0 0.66145,-0.296278 0.66145,-0.661457 v -2.866315 c 0.13781,0 0.40652,0.110243 0.50299,0.206706 l 1.93614,1.93614 c 0.0896,0.08957 0.2067,0.372069 0.2067,0.502983 v 6.1736 z m -2.64583,-6.394086 c 0,0.117133 -0.10335,0.220486 -0.22048,0.220486 h -1.32292 c -0.11713,0 -0.22048,-0.103353 -0.22048,-0.220486 v -2.204857 c 0,-0.117133 0.10335,-0.220486 0.22048,-0.220486 h 1.32292 c 0.11713,0 0.22048,0.103353 0.22048,0.220486 z m 4.40972,0.220486 c 0,-0.36518 -0.20671,-0.868163 -0.46854,-1.129989 l -1.92925,-1.929251 c -0.26182,-0.261826 -0.76481,-0.468532 -1.12999,-0.468532 h -6.39408 c -0.36518,0 -0.66146,0.296278 -0.66146,0.661457 v 9.260401 c 0,0.365179 0.29628,0.661457 0.66146,0.661457 h 9.2604 c 0.36518,0 0.66146,-0.296278 0.66146,-0.661457 z"
           style="font-size:12.3472px;line-height:1.25;font-family:FontAwesome;-inkscape-font-specification:FontAwesome;letter-spacing:0px;word-spacing:0px;fill:#000000;stroke-width:0.47247"
           id="path583" />
      </g>
    </g>
    <path
       d="m 113.18144,92.83064 c 0,0.510045 -0.41599,0.926041 -0.92605,0.926041 -0.51004,0 -0.92604,-0.415996 -0.92604,-0.926041 0,-0.510047 0.416,-0.926042 0.92604,-0.926042 0.51006,0 0.92605,0.415995 0.92605,0.926042 z m 1.85208,-0.394291 c 0,-0.0615 -0.0434,-0.119373 -0.10488,-0.130225 l -0.66197,-0.10129 c -0.0362,-0.119373 -0.0868,-0.238746 -0.14831,-0.3545 0.12299,-0.170016 0.25682,-0.32918 0.37981,-0.495578 0.0181,-0.02532 0.0289,-0.05064 0.0289,-0.08319 0,-0.02895 -0.007,-0.05788 -0.0253,-0.07958 -0.15193,-0.213426 -0.40514,-0.437701 -0.59686,-0.61495 -0.0253,-0.02171 -0.0579,-0.03618 -0.0904,-0.03618 -0.0326,0 -0.0651,0.01085 -0.0868,0.03255 l -0.51366,0.387057 c -0.10489,-0.05426 -0.21343,-0.09767 -0.32557,-0.133841 l -0.10127,-0.665594 c -0.007,-0.0615 -0.0651,-0.108523 -0.13022,-0.108523 h -0.80304 c -0.0651,0 -0.11574,0.04341 -0.13024,0.10129 -0.0579,0.217041 -0.0796,0.452168 -0.10488,0.672827 -0.11212,0.03618 -0.22427,0.08319 -0.32918,0.137459 l -0.49924,-0.387051 c -0.0289,-0.02171 -0.0615,-0.03618 -0.094,-0.03618 -0.12299,0 -0.61133,0.528132 -0.69816,0.647505 -0.0181,0.02532 -0.0326,0.05065 -0.0326,0.0832 0,0.03255 0.0145,0.06149 0.0362,0.08681 0.13384,0.162779 0.26406,0.325562 0.38705,0.499193 -0.0579,0.108524 -0.10488,0.217041 -0.14107,0.332798 l -0.67283,0.10129 c -0.0542,0.01085 -0.0977,0.07596 -0.0977,0.130226 v 0.803053 c 0,0.06149 0.0434,0.119372 0.10488,0.130224 l 0.66198,0.09767 c 0.0362,0.12299 0.0868,0.242363 0.14831,0.358119 -0.12299,0.170014 -0.25683,0.329178 -0.37982,0.495576 -0.0181,0.02532 -0.0289,0.05064 -0.0289,0.08319 0,0.02895 0.007,0.05788 0.0253,0.0832 0.15194,0.209804 0.40515,0.434081 0.59687,0.607713 0.0253,0.02532 0.0579,0.03978 0.0904,0.03978 0.0326,0 0.0651,-0.01085 0.0904,-0.03255 l 0.51006,-0.387055 c 0.10488,0.05426 0.21342,0.09766 0.32556,0.133841 l 0.10126,0.665594 c 0.007,0.06149 0.0651,0.108523 0.13024,0.108523 h 0.80305 c 0.0651,0 0.11573,-0.04341 0.13022,-0.10129 0.0579,-0.217041 0.0796,-0.452169 0.10489,-0.672827 0.11211,-0.03618 0.22428,-0.0832 0.32918,-0.137459 l 0.4992,0.390673 c 0.0289,0.01808 0.0615,0.03255 0.094,0.03255 0.12299,0 0.61134,-0.531749 0.69816,-0.647503 0.0217,-0.02532 0.0326,-0.05065 0.0326,-0.0832 0,-0.03255 -0.0145,-0.06511 -0.0362,-0.09044 -0.13384,-0.162779 -0.26406,-0.321943 -0.38705,-0.499194 0.0579,-0.104906 0.10126,-0.213425 0.14107,-0.329179 l 0.66921,-0.10129 c 0.0579,-0.01085 0.10127,-0.07596 0.10127,-0.130225 z"
       style="font-size:37.5px;line-height:1.25;font-family:FontAwesome;-inkscape-font-specification:FontAwesome;stroke-width:0.162057"
       id="path775" />
  </g>
</svg>
