<?xml version="1.0" encoding="UTF-8" standalone="no"?>
<!-- Created with Inkscape (http://www.inkscape.org/) -->

<svg
   width="48"
   height="48"
   viewBox="0 0 12.7 12.7"
   version="1.1"
   id="svg4290"
   inkscape:version="1.2.2 (b0a8486541, 2022-12-01)"
   sodipodi:docname="arinc665_media_set_import_xml.svg"
   xmlns:inkscape="http://www.inkscape.org/namespaces/inkscape"
   xmlns:sodipodi="http://sodipodi.sourceforge.net/DTD/sodipodi-0.dtd"
   xmlns="http://www.w3.org/2000/svg"
   xmlns:svg="http://www.w3.org/2000/svg">
  <sodipodi:namedview
     id="namedview4292"
     pagecolor="#ffffff"
     bordercolor="#666666"
     borderopacity="1.0"
     inkscape:pageshadow="2"
     inkscape:pageopacity="0.0"
     inkscape:pagecheckerboard="0"
     inkscape:document-units="px"
     showgrid="true"
     units="px"
     fit-margin-top="0"
     fit-margin-left="0"
     fit-margin-right="0"
     fit-margin-bottom="0"
     inkscape:zoom="20.3125"
     inkscape:cx="24.049231"
     inkscape:cy="23.827692"
     inkscape:window-width="3840"
     inkscape:window-height="2007"
     inkscape:window-x="0"
     inkscape:window-y="0"
     inkscape:window-maximized="1"
     inkscape:current-layer="layer1"
     inkscape:showpageshadow="2"
     inkscape:deskcolor="#d1d1d1">
    <inkscape:grid
       type="xygrid"
       id="grid13"
       empspacing="8" />
  </sodipodi:namedview>
  <defs
     id="defs4287" />
  <g
     inkscape:label="Ebene 1"
     inkscape:groupmode="layer"
     id="layer1"
     transform="translate(-102.5981,-83.173336)">
    <path
       d="m 113.57829,92.962922 c 0,-0.07028 -0.0289,-0.136426 -0.0785,-0.186035 l -2.24899,-2.248959 c -0.0496,-0.04961 -0.11577,-0.07855 -0.18604,-0.07855 -0.14469,0 -0.26458,0.119889 -0.26458,0.264583 v 1.190625 h -1.85209 c -0.1447,0 -0.26459,0.11989 -0.26459,0.264584 v 1.5875 c 0,0.144694 0.11989,0.264583 0.26459,0.264583 h 1.85209 v 1.190625 c 0,0.144694 0.11989,0.264583 0.26458,0.264583 0.0703,0 0.13643,-0.02894 0.18604,-0.07855 l 2.24896,-2.248959 c 0.0496,-0.04961 0.0785,-0.115755 0.0785,-0.186035 z m 1.45521,-1.455208 c 0,-0.657325 -0.5333,-1.190625 -1.19063,-1.190625 h -1.32292 c -0.18603,0 -0.13229,0.281119 -0.13229,0.396875 0,0.152962 0.16124,0.132292 0.26459,0.132292 h 1.19062 c 0.36381,0 0.66146,0.297655 0.66146,0.661458 v 2.910417 c 0,0.363802 -0.29765,0.661458 -0.66146,0.661458 h -1.32292 c -0.18603,0 -0.13229,0.28112 -0.13229,0.396875 0,0.07028 0.062,0.132292 0.13229,0.132292 h 1.32292 c 0.65733,0 1.19063,-0.5333 1.19063,-1.190625 z"
       style="font-size:10.5833px;line-height:1.25;font-family:FontAwesome;-inkscape-font-specification:FontAwesome;letter-spacing:0px;word-spacing:0px;stroke-width:0.264583"
       id="path3577" />
    <g
       id="g320">
      <g
         id="g596"
         transform="matrix(0.34999999,0,0,0.34999999,67.826474,56.928989)"
         style="stroke-width:2.85714">
        <g
           id="g401"
           transform="matrix(0.80000101,0,0,0.80000139,23.37701,16.317042)"
           style="stroke-width:3.57139">
          <path
             d="m 114.23976,87.759451 c 0,-0.36518 -0.20671,-0.868163 -0.46854,-1.129989 l -1.92925,-1.929251 c -0.26182,-0.261826 -0.76481,-0.468532 -1.12999,-0.468532 h -6.39408 c -0.36518,0 -0.66146,0.296278 -0.66146,0.661457 v 9.260401 c 0,0.365179 0.29628,0.661457 0.66146,0.661457 h 9.2604 c 0.36518,0 0.66146,-0.296278 0.66146,-0.661457 z"
             style="font-size:12.3472px;line-height:1.25;font-family:FontAwesome;-inkscape-font-specification:FontAwesome;letter-spacing:0px;word-spacing:0px;fill:#ffffff;stroke-width:0.944941"
             id="path130"
             sodipodi:nodetypes="sccssssssss" />
          <path
             d="m 106.30227,93.933051 v -2.645829 h 5.29166 v 2.645829 z m 6.1736,0 v -2.866314 c 0,-0.36518 -0.29628,-0.661457 -0.66146,-0.661457 h -5.73263 c -0.36518,0 -0.66145,0.296277 -0.66145,0.661457 v 2.866314 h -0.88195 v -8.819429 h 0.88195 v 2.866315 c 0,0.365179 0.29627,0.661457 0.66145,0.661457 h 3.96875 c 0.36518,0 0.66145,-0.296278 0.66145,-0.661457 v -2.866315 c 0.13781,0 0.40652,0.110243 0.50299,0.206706 l 1.93614,1.93614 c 0.0896,0.08957 0.2067,0.372069 0.2067,0.502983 v 6.1736 z m -2.64583,-6.394086 c 0,0.117133 -0.10335,0.220486 -0.22048,0.220486 h -1.32292 c -0.11713,0 -0.22048,-0.103353 -0.22048,-0.220486 v -2.204857 c 0,-0.117133 0.10335,-0.220486 0.22048,-0.220486 h 1.32292 c 0.11713,0 0.22048,0.103353 0.22048,0.220486 z m 4.40972,0.220486 c 0,-0.36518 -0.20671,-0.868163 -0.46854,-1.129989 l -1.92925,-1.929251 c -0.26182,-0.261826 -0.76481,-0.468532 -1.12999,-0.468532 h -6.39408 c -0.36518,0 -0.66146,0.296278 -0.66146,0.661457 v 9.260401 c 0,0.365179 0.29628,0.661457 0.66146,0.661457 h 9.2604 c 0.36518,0 0.66146,-0.296278 0.66146,-0.661457 z"
             style="font-size:12.3472px;line-height:1.25;font-family:FontAwesome;-inkscape-font-specification:FontAwesome;letter-spacing:0px;word-spacing:0px;fill:#000000;stroke-width:0.944941"
             id="path22" />
        </g>
        <g
           id="g579"
           transform="matrix(0.80000101,0,0,0.80000139,22.318677,17.375376)"
           style="stroke-width:3.57139">
          <path
             d="m 114.23976,87.759451 c 0,-0.36518 -0.20671,-0.868163 -0.46854,-1.129989 l -1.92925,-1.929251 c -0.26182,-0.261826 -0.76481,-0.468532 -1.12999,-0.468532 h -6.39408 c -0.36518,0 -0.66146,0.296278 -0.66146,0.661457 v 9.260401 c 0,0.365179 0.29628,0.661457 0.66146,0.661457 h 9.2604 c 0.36518,0 0.66146,-0.296278 0.66146,-0.661457 z"
             style="font-size:12.3472px;line-height:1.25;font-family:FontAwesome;-inkscape-font-specification:FontAwesome;letter-spacing:0px;word-spacing:0px;fill:#ffffff;stroke-width:0.944941"
             id="path575"
             sodipodi:nodetypes="sccssssssss" />
          <path
             d="m 106.30227,93.933051 v -2.645829 h 5.29166 v 2.645829 z m 6.1736,0 v -2.866314 c 0,-0.36518 -0.29628,-0.661457 -0.66146,-0.661457 h -5.73263 c -0.36518,0 -0.66145,0.296277 -0.66145,0.661457 v 2.866314 h -0.88195 v -8.819429 h 0.88195 v 2.866315 c 0,0.365179 0.29627,0.661457 0.66145,0.661457 h 3.96875 c 0.36518,0 0.66145,-0.296278 0.66145,-0.661457 v -2.866315 c 0.13781,0 0.40652,0.110243 0.50299,0.206706 l 1.93614,1.93614 c 0.0896,0.08957 0.2067,0.372069 0.2067,0.502983 v 6.1736 z m -2.64583,-6.394086 c 0,0.117133 -0.10335,0.220486 -0.22048,0.220486 h -1.32292 c -0.11713,0 -0.22048,-0.103353 -0.22048,-0.220486 v -2.204857 c 0,-0.117133 0.10335,-0.220486 0.22048,-0.220486 h 1.32292 c 0.11713,0 0.22048,0.103353 0.22048,0.220486 z m 4.40972,0.220486 c 0,-0.36518 -0.20671,-0.868163 -0.46854,-1.129989 l -1.92925,-1.929251 c -0.26182,-0.261826 -0.76481,-0.468532 -1.12999,-0.468532 h -6.39408 c -0.36518,0 -0.66146,0.296278 -0.66146,0.661457 v 9.260401 c 0,0.365179 0.29628,0.661457 0.66146,0.661457 h 9.2604 c 0.36518,0 0.66146,-0.296278 0.66146,-0.661457 z"
             style="font-size:12.3472px;line-height:1.25;font-family:FontAwesome;-inkscape-font-specification:FontAwesome;letter-spacing:0px;word-spacing:0px;fill:#000000;stroke-width:0.944941"
             id="path577" />
        </g>
        <g
           id="g585"
           transform="matrix(0.80000101,0,0,0.80000139,21.260343,18.433709)"
           style="stroke-width:3.57139">
          <path
             d="m 114.23976,87.759451 c 0,-0.36518 -0.20671,-0.868163 -0.46854,-1.129989 l -1.92925,-1.929251 c -0.26182,-0.261826 -0.76481,-0.468532 -1.12999,-0.468532 h -6.39408 c -0.36518,0 -0.66146,0.296278 -0.66146,0.661457 v 9.260401 c 0,0.365179 0.29628,0.661457 0.66146,0.661457 h 9.2604 c 0.36518,0 0.66146,-0.296278 0.66146,-0.661457 z"
             style="font-size:12.3472px;line-height:1.25;font-family:FontAwesome;-inkscape-font-specification:FontAwesome;letter-spacing:0px;word-spacing:0px;fill:#ffffff;stroke-width:0.944941"
             id="path581"
             sodipodi:nodetypes="sccssssssss" />
          <path
             d="m 106.30227,93.933051 v -2.645829 h 5.29166 v 2.645829 z m 6.1736,0 v -2.866314 c 0,-0.36518 -0.29628,-0.661457 -0.66146,-0.661457 h -5.73263 c -0.36518,0 -0.66145,0.296277 -0.66145,0.661457 v 2.866314 h -0.88195 v -8.819429 h 0.88195 v 2.866315 c 0,0.365179 0.29627,0.661457 0.66145,0.661457 h 3.96875 c 0.36518,0 0.66145,-0.296278 0.66145,-0.661457 v -2.866315 c 0.13781,0 0.40652,0.110243 0.50299,0.206706 l 1.93614,1.93614 c 0.0896,0.08957 0.2067,0.372069 0.2067,0.502983 v 6.1736 z m -2.64583,-6.394086 c 0,0.117133 -0.10335,0.220486 -0.22048,0.220486 h -1.32292 c -0.11713,0 -0.22048,-0.103353 -0.22048,-0.220486 v -2.204857 c 0,-0.117133 0.10335,-0.220486 0.22048,-0.220486 h 1.32292 c 0.11713,0 0.22048,0.103353 0.22048,0.220486 z m 4.40972,0.220486 c 0,-0.36518 -0.20671,-0.868163 -0.46854,-1.129989 l -1.92925,-1.929251 c -0.26182,-0.261826 -0.76481,-0.468532 -1.12999,-0.468532 h -6.39408 c -0.36518,0 -0.66146,0.296278 -0.66146,0.661457 v 9.260401 c 0,0.365179 0.29628,0.661457 0.66146,0.661457 h 9.2604 c 0.36518,0 0.66146,-0.296278 0.66146,-0.661457 z"
             style="font-size:12.3472px;line-height:1.25;font-family:FontAwesome;-inkscape-font-specification:FontAwesome;letter-spacing:0px;word-spacing:0px;fill:#000000;stroke-width:0.944941"
             id="path583" />
        </g>
      </g>
      <path
         d="m 108.93153,85.008884 -1.28985,-1.289843 c -0.15296,-0.152963 -0.45888,-0.281121 -0.67799,-0.281121 h -3.70417 c -0.2191,0 -0.39687,0.177767 -0.39687,0.396876 v 6.614585 c 0,0.219107 0.17777,0.396873 0.39687,0.396873 h 5.55625 c 0.2191,0 0.39688,-0.177766 0.39688,-0.396873 v -4.762503 c 0,-0.219108 -0.12816,-0.525032 -0.28112,-0.677994 z m -1.83555,-1.008724 c 0.0703,0.02481 0.14056,0.06201 0.1695,0.09095 l 1.29397,1.293978 c 0.0289,0.02894 0.0662,0.09922 0.091,0.169498 h -1.55443 z m 1.5875,6.316927 h -5.29166 v -6.35 h 3.17499 v 1.719791 c 0,0.219108 0.17777,0.396875 0.39688,0.396875 h 1.71979 z"
         id="path15293"
         style="font-size:10.5833px;line-height:1.25;font-family:FontAwesome;-inkscape-font-specification:FontAwesome;letter-spacing:0px;word-spacing:0px;stroke-width:0.264583" />
    </g>
  </g>
</svg>
