<?xml version="1.0" encoding="UTF-8" standalone="no"?>
<!-- Created with Inkscape (http://www.inkscape.org/) -->

<svg
   width="48"
   height="48"
   viewBox="0 0 12.7 12.7"
   version="1.1"
   id="svg4290"
   inkscape:version="1.1.1 (3bf5ae0d25, 2021-09-20)"
   sodipodi:docname="arinc665_media_set_import.svg"
   xmlns:inkscape="http://www.inkscape.org/namespaces/inkscape"
   xmlns:sodipodi="http://sodipodi.sourceforge.net/DTD/sodipodi-0.dtd"
   xmlns="http://www.w3.org/2000/svg"
   xmlns:svg="http://www.w3.org/2000/svg">
  <sodipodi:namedview
     id="namedview4292"
     pagecolor="#ffffff"
     bordercolor="#666666"
     borderopacity="1.0"
     inkscape:pageshadow="2"
     inkscape:pageopacity="0.0"
     inkscape:pagecheckerboard="0"
     inkscape:document-units="px"
     showgrid="true"
     units="px"
     fit-margin-top="0"
     fit-margin-left="0"
     fit-margin-right="0"
     fit-margin-bottom="0"
     inkscape:zoom="20.3125"
     inkscape:cx="24"
     inkscape:cy="23.827692"
     inkscape:window-width="1920"
     inkscape:window-height="1171"
     inkscape:window-x="1920"
     inkscape:window-y="0"
     inkscape:window-maximized="1"
     inkscape:current-layer="layer1">
    <inkscape:grid
       type="xygrid"
       id="grid13"
       empspacing="8" />
  </sodipodi:namedview>
  <defs
     id="defs4287" />
  <g
     inkscape:label="Ebene 1"
     inkscape:groupmode="layer"
     id="layer1"
     transform="translate(-102.5981,-83.173336)">
    <g
       id="g596"
       transform="matrix(0.69999998,0,0,0.69999998,29.932766,24.846169)"
       style="stroke-width:1.42857">
      <g
         id="g401"
         transform="matrix(0.80000101,0,0,0.80000139,23.37701,16.317042)"
         style="stroke-width:1.7857">
        <path
           d="m 114.23976,87.759451 c 0,-0.36518 -0.20671,-0.868163 -0.46854,-1.129989 l -1.92925,-1.929251 c -0.26182,-0.261826 -0.76481,-0.468532 -1.12999,-0.468532 h -6.39408 c -0.36518,0 -0.66146,0.296278 -0.66146,0.661457 v 9.260401 c 0,0.365179 0.29628,0.661457 0.66146,0.661457 h 9.2604 c 0.36518,0 0.66146,-0.296278 0.66146,-0.661457 z"
           style="font-size:12.3472px;line-height:1.25;font-family:FontAwesome;-inkscape-font-specification:FontAwesome;letter-spacing:0px;word-spacing:0px;fill:#ffffff;stroke-width:0.47247"
           id="path130"
           sodipodi:nodetypes="sccssssssss" />
        <path
           d="m 106.30227,93.933051 v -2.645829 h 5.29166 v 2.645829 z m 6.1736,0 v -2.866314 c 0,-0.36518 -0.29628,-0.661457 -0.66146,-0.661457 h -5.73263 c -0.36518,0 -0.66145,0.296277 -0.66145,0.661457 v 2.866314 h -0.88195 v -8.819429 h 0.88195 v 2.866315 c 0,0.365179 0.29627,0.661457 0.66145,0.661457 h 3.96875 c 0.36518,0 0.66145,-0.296278 0.66145,-0.661457 v -2.866315 c 0.13781,0 0.40652,0.110243 0.50299,0.206706 l 1.93614,1.93614 c 0.0896,0.08957 0.2067,0.372069 0.2067,0.502983 v 6.1736 z m -2.64583,-6.394086 c 0,0.117133 -0.10335,0.220486 -0.22048,0.220486 h -1.32292 c -0.11713,0 -0.22048,-0.103353 -0.22048,-0.220486 v -2.204857 c 0,-0.117133 0.10335,-0.220486 0.22048,-0.220486 h 1.32292 c 0.11713,0 0.22048,0.103353 0.22048,0.220486 z m 4.40972,0.220486 c 0,-0.36518 -0.20671,-0.868163 -0.46854,-1.129989 l -1.92925,-1.929251 c -0.26182,-0.261826 -0.76481,-0.468532 -1.12999,-0.468532 h -6.39408 c -0.36518,0 -0.66146,0.296278 -0.66146,0.661457 v 9.260401 c 0,0.365179 0.29628,0.661457 0.66146,0.661457 h 9.2604 c 0.36518,0 0.66146,-0.296278 0.66146,-0.661457 z"
           style="font-size:12.3472px;line-height:1.25;font-family:FontAwesome;-inkscape-font-specification:FontAwesome;letter-spacing:0px;word-spacing:0px;fill:#000000;stroke-width:0.47247"
           id="path22" />
      </g>
      <g
         id="g579"
         transform="matrix(0.80000101,0,0,0.80000139,22.318677,17.375376)"
         style="stroke-width:1.7857">
        <path
           d="m 114.23976,87.759451 c 0,-0.36518 -0.20671,-0.868163 -0.46854,-1.129989 l -1.92925,-1.929251 c -0.26182,-0.261826 -0.76481,-0.468532 -1.12999,-0.468532 h -6.39408 c -0.36518,0 -0.66146,0.296278 -0.66146,0.661457 v 9.260401 c 0,0.365179 0.29628,0.661457 0.66146,0.661457 h 9.2604 c 0.36518,0 0.66146,-0.296278 0.66146,-0.661457 z"
           style="font-size:12.3472px;line-height:1.25;font-family:FontAwesome;-inkscape-font-specification:FontAwesome;letter-spacing:0px;word-spacing:0px;fill:#ffffff;stroke-width:0.47247"
           id="path575"
           sodipodi:nodetypes="sccssssssss" />
        <path
           d="m 106.30227,93.933051 v -2.645829 h 5.29166 v 2.645829 z m 6.1736,0 v -2.866314 c 0,-0.36518 -0.29628,-0.661457 -0.66146,-0.661457 h -5.73263 c -0.36518,0 -0.66145,0.296277 -0.66145,0.661457 v 2.866314 h -0.88195 v -8.819429 h 0.88195 v 2.866315 c 0,0.365179 0.29627,0.661457 0.66145,0.661457 h 3.96875 c 0.36518,0 0.66145,-0.296278 0.66145,-0.661457 v -2.866315 c 0.13781,0 0.40652,0.110243 0.50299,0.206706 l 1.93614,1.93614 c 0.0896,0.08957 0.2067,0.372069 0.2067,0.502983 v 6.1736 z m -2.64583,-6.394086 c 0,0.117133 -0.10335,0.220486 -0.22048,0.220486 h -1.32292 c -0.11713,0 -0.22048,-0.103353 -0.22048,-0.220486 v -2.204857 c 0,-0.117133 0.10335,-0.220486 0.22048,-0.220486 h 1.32292 c 0.11713,0 0.22048,0.103353 0.22048,0.220486 z m 4.40972,0.220486 c 0,-0.36518 -0.20671,-0.868163 -0.46854,-1.129989 l -1.92925,-1.929251 c -0.26182,-0.261826 -0.76481,-0.468532 -1.12999,-0.468532 h -6.39408 c -0.36518,0 -0.66146,0.296278 -0.66146,0.661457 v 9.260401 c 0,0.365179 0.29628,0.661457 0.66146,0.661457 h 9.2604 c 0.36518,0 0.66146,-0.296278 0.66146,-0.661457 z"
           style="font-size:12.3472px;line-height:1.25;font-family:FontAwesome;-inkscape-font-specification:FontAwesome;letter-spacing:0px;word-spacing:0px;fill:#000000;stroke-width:0.47247"
           id="path577" />
      </g>
      <g
         id="g585"
         transform="matrix(0.80000101,0,0,0.80000139,21.260343,18.433709)"
         style="stroke-width:1.7857">
        <path
           d="m 114.23976,87.759451 c 0,-0.36518 -0.20671,-0.868163 -0.46854,-1.129989 l -1.92925,-1.929251 c -0.26182,-0.261826 -0.76481,-0.468532 -1.12999,-0.468532 h -6.39408 c -0.36518,0 -0.66146,0.296278 -0.66146,0.661457 v 9.260401 c 0,0.365179 0.29628,0.661457 0.66146,0.661457 h 9.2604 c 0.36518,0 0.66146,-0.296278 0.66146,-0.661457 z"
           style="font-size:12.3472px;line-height:1.25;font-family:FontAwesome;-inkscape-font-specification:FontAwesome;letter-spacing:0px;word-spacing:0px;fill:#ffffff;stroke-width:0.47247"
           id="path581"
           sodipodi:nodetypes="sccssssssss" />
        <path
           d="m 106.30227,93.933051 v -2.645829 h 5.29166 v 2.645829 z m 6.1736,0 v -2.866314 c 0,-0.36518 -0.29628,-0.661457 -0.66146,-0.661457 h -5.73263 c -0.36518,0 -0.66145,0.296277 -0.66145,0.661457 v 2.866314 h -0.88195 v -8.819429 h 0.88195 v 2.866315 c 0,0.365179 0.29627,0.661457 0.66145,0.661457 h 3.96875 c 0.36518,0 0.66145,-0.296278 0.66145,-0.661457 v -2.866315 c 0.13781,0 0.40652,0.110243 0.50299,0.206706 l 1.93614,1.93614 c 0.0896,0.08957 0.2067,0.372069 0.2067,0.502983 v 6.1736 z m -2.64583,-6.394086 c 0,0.117133 -0.10335,0.220486 -0.22048,0.220486 h -1.32292 c -0.11713,0 -0.22048,-0.103353 -0.22048,-0.220486 v -2.204857 c 0,-0.117133 0.10335,-0.220486 0.22048,-0.220486 h 1.32292 c 0.11713,0 0.22048,0.103353 0.22048,0.220486 z m 4.40972,0.220486 c 0,-0.36518 -0.20671,-0.868163 -0.46854,-1.129989 l -1.92925,-1.929251 c -0.26182,-0.261826 -0.76481,-0.468532 -1.12999,-0.468532 h -6.39408 c -0.36518,0 -0.66146,0.296278 -0.66146,0.661457 v 9.260401 c 0,0.365179 0.29628,0.661457 0.66146,0.661457 h 9.2604 c 0.36518,0 0.66146,-0.296278 0.66146,-0.661457 z"
           style="font-size:12.3472px;line-height:1.25;font-family:FontAwesome;-inkscape-font-specification:FontAwesome;letter-spacing:0px;word-spacing:0px;fill:#000000;stroke-width:0.47247"
           id="path583" />
      </g>
    </g>
    <path
       d="m 113.57827,92.962916 c 0,-0.07028 -0.0289,-0.136427 -0.0785,-0.186037 l -2.24897,-2.248971 c -0.0496,-0.04961 -0.11576,-0.07855 -0.18604,-0.07855 -0.14469,0 -0.26458,0.11989 -0.26458,0.264584 v 1.190632 h -1.8521 c -0.14469,0 -0.26458,0.11989 -0.26458,0.264586 v 1.587508 c 0,0.144696 0.11989,0.264585 0.26458,0.264585 h 1.8521 v 1.190633 c 0,0.144694 0.11989,0.264584 0.26458,0.264584 0.0703,0 0.13643,-0.02894 0.18604,-0.07855 l 2.24897,-2.248972 c 0.0496,-0.04961 0.0785,-0.115756 0.0785,-0.186036 z m 1.45521,-1.455217 c 0,-0.657329 -0.5333,-1.190632 -1.19063,-1.190632 h -1.32292 c -0.18605,0 -0.13229,0.281122 -0.13229,0.396877 0,0.152963 0.16123,0.132293 0.26457,0.132293 h 1.19064 c 0.36381,0 0.66146,0.297657 0.66146,0.661462 v 2.910433 c 0,0.363805 -0.29765,0.661462 -0.66146,0.661462 h -1.32292 c -0.18605,0 -0.13229,0.281123 -0.13229,0.396878 0,0.07028 0.062,0.132292 0.13229,0.132292 h 1.32292 c 0.65733,0 1.19063,-0.533303 1.19063,-1.190632 z"
       style="font-size:10.5833px;line-height:1.25;font-family:FontAwesome;-inkscape-font-specification:FontAwesome;letter-spacing:0px;word-spacing:0px;stroke-width:0.264583"
       id="path3577" />
  </g>
</svg>
