<?xml version="1.0" encoding="UTF-8" standalone="no"?>
<!-- Created with Inkscape (http://www.inkscape.org/) -->

<svg
   width="48"
   height="48"
   viewBox="0 0 12.7 12.7"
   version="1.1"
   id="svg4290"
   inkscape:version="1.1.1 (3bf5ae0d25, 2021-09-20)"
   sodipodi:docname="arinc665_media_set_delete.svg"
   xmlns:inkscape="http://www.inkscape.org/namespaces/inkscape"
   xmlns:sodipodi="http://sodipodi.sourceforge.net/DTD/sodipodi-0.dtd"
   xmlns="http://www.w3.org/2000/svg"
   xmlns:svg="http://www.w3.org/2000/svg">
  <sodipodi:namedview
     id="namedview4292"
     pagecolor="#ffffff"
     bordercolor="#666666"
     borderopacity="1.0"
     inkscape:pageshadow="2"
     inkscape:pageopacity="0.0"
     inkscape:pagecheckerboard="0"
     inkscape:document-units="px"
     showgrid="true"
     units="px"
     fit-margin-top="0"
     fit-margin-left="0"
     fit-margin-right="0"
     fit-margin-bottom="0"
     inkscape:zoom="11.313709"
     inkscape:cx="64.30252"
     inkscape:cy="16.175067"
     inkscape:window-width="1920"
     inkscape:window-height="1171"
     inkscape:window-x="1920"
     inkscape:window-y="0"
     inkscape:window-maximized="1"
     inkscape:current-layer="layer1">
    <inkscape:grid
       type="xygrid"
       id="grid13"
       empspacing="8" />
  </sodipodi:namedview>
  <defs
     id="defs4287" />
  <g
     inkscape:label="Ebene 1"
     inkscape:groupmode="layer"
     id="layer1"
     transform="translate(-102.5981,-83.173336)">
    <g
       id="g596"
       transform="matrix(0.69999998,0,0,0.69999998,29.932766,24.846169)"
       style="stroke-width:1.42857">
      <g
         id="g401"
         transform="matrix(0.80000101,0,0,0.80000139,23.37701,16.317042)"
         style="stroke-width:1.7857">
        <path
           d="m 114.23976,87.759451 c 0,-0.36518 -0.20671,-0.868163 -0.46854,-1.129989 l -1.92925,-1.929251 c -0.26182,-0.261826 -0.76481,-0.468532 -1.12999,-0.468532 h -6.39408 c -0.36518,0 -0.66146,0.296278 -0.66146,0.661457 v 9.260401 c 0,0.365179 0.29628,0.661457 0.66146,0.661457 h 9.2604 c 0.36518,0 0.66146,-0.296278 0.66146,-0.661457 z"
           style="font-size:12.3472px;line-height:1.25;font-family:FontAwesome;-inkscape-font-specification:FontAwesome;letter-spacing:0px;word-spacing:0px;fill:#ffffff;stroke-width:0.47247"
           id="path130"
           sodipodi:nodetypes="sccssssssss" />
        <path
           d="m 106.30227,93.933051 v -2.645829 h 5.29166 v 2.645829 z m 6.1736,0 v -2.866314 c 0,-0.36518 -0.29628,-0.661457 -0.66146,-0.661457 h -5.73263 c -0.36518,0 -0.66145,0.296277 -0.66145,0.661457 v 2.866314 h -0.88195 v -8.819429 h 0.88195 v 2.866315 c 0,0.365179 0.29627,0.661457 0.66145,0.661457 h 3.96875 c 0.36518,0 0.66145,-0.296278 0.66145,-0.661457 v -2.866315 c 0.13781,0 0.40652,0.110243 0.50299,0.206706 l 1.93614,1.93614 c 0.0896,0.08957 0.2067,0.372069 0.2067,0.502983 v 6.1736 z m -2.64583,-6.394086 c 0,0.117133 -0.10335,0.220486 -0.22048,0.220486 h -1.32292 c -0.11713,0 -0.22048,-0.103353 -0.22048,-0.220486 v -2.204857 c 0,-0.117133 0.10335,-0.220486 0.22048,-0.220486 h 1.32292 c 0.11713,0 0.22048,0.103353 0.22048,0.220486 z m 4.40972,0.220486 c 0,-0.36518 -0.20671,-0.868163 -0.46854,-1.129989 l -1.92925,-1.929251 c -0.26182,-0.261826 -0.76481,-0.468532 -1.12999,-0.468532 h -6.39408 c -0.36518,0 -0.66146,0.296278 -0.66146,0.661457 v 9.260401 c 0,0.365179 0.29628,0.661457 0.66146,0.661457 h 9.2604 c 0.36518,0 0.66146,-0.296278 0.66146,-0.661457 z"
           style="font-size:12.3472px;line-height:1.25;font-family:FontAwesome;-inkscape-font-specification:FontAwesome;letter-spacing:0px;word-spacing:0px;fill:#000000;stroke-width:0.47247"
           id="path22" />
      </g>
      <g
         id="g579"
         transform="matrix(0.80000101,0,0,0.80000139,22.318677,17.375376)"
         style="stroke-width:1.7857">
        <path
           d="m 114.23976,87.759451 c 0,-0.36518 -0.20671,-0.868163 -0.46854,-1.129989 l -1.92925,-1.929251 c -0.26182,-0.261826 -0.76481,-0.468532 -1.12999,-0.468532 h -6.39408 c -0.36518,0 -0.66146,0.296278 -0.66146,0.661457 v 9.260401 c 0,0.365179 0.29628,0.661457 0.66146,0.661457 h 9.2604 c 0.36518,0 0.66146,-0.296278 0.66146,-0.661457 z"
           style="font-size:12.3472px;line-height:1.25;font-family:FontAwesome;-inkscape-font-specification:FontAwesome;letter-spacing:0px;word-spacing:0px;fill:#ffffff;stroke-width:0.47247"
           id="path575"
           sodipodi:nodetypes="sccssssssss" />
        <path
           d="m 106.30227,93.933051 v -2.645829 h 5.29166 v 2.645829 z m 6.1736,0 v -2.866314 c 0,-0.36518 -0.29628,-0.661457 -0.66146,-0.661457 h -5.73263 c -0.36518,0 -0.66145,0.296277 -0.66145,0.661457 v 2.866314 h -0.88195 v -8.819429 h 0.88195 v 2.866315 c 0,0.365179 0.29627,0.661457 0.66145,0.661457 h 3.96875 c 0.36518,0 0.66145,-0.296278 0.66145,-0.661457 v -2.866315 c 0.13781,0 0.40652,0.110243 0.50299,0.206706 l 1.93614,1.93614 c 0.0896,0.08957 0.2067,0.372069 0.2067,0.502983 v 6.1736 z m -2.64583,-6.394086 c 0,0.117133 -0.10335,0.220486 -0.22048,0.220486 h -1.32292 c -0.11713,0 -0.22048,-0.103353 -0.22048,-0.220486 v -2.204857 c 0,-0.117133 0.10335,-0.220486 0.22048,-0.220486 h 1.32292 c 0.11713,0 0.22048,0.103353 0.22048,0.220486 z m 4.40972,0.220486 c 0,-0.36518 -0.20671,-0.868163 -0.46854,-1.129989 l -1.92925,-1.929251 c -0.26182,-0.261826 -0.76481,-0.468532 -1.12999,-0.468532 h -6.39408 c -0.36518,0 -0.66146,0.296278 -0.66146,0.661457 v 9.260401 c 0,0.365179 0.29628,0.661457 0.66146,0.661457 h 9.2604 c 0.36518,0 0.66146,-0.296278 0.66146,-0.661457 z"
           style="font-size:12.3472px;line-height:1.25;font-family:FontAwesome;-inkscape-font-specification:FontAwesome;letter-spacing:0px;word-spacing:0px;fill:#000000;stroke-width:0.47247"
           id="path577" />
      </g>
      <g
         id="g585"
         transform="matrix(0.80000101,0,0,0.80000139,21.260343,18.433709)"
         style="stroke-width:1.7857">
        <path
           d="m 114.23976,87.759451 c 0,-0.36518 -0.20671,-0.868163 -0.46854,-1.129989 l -1.92925,-1.929251 c -0.26182,-0.261826 -0.76481,-0.468532 -1.12999,-0.468532 h -6.39408 c -0.36518,0 -0.66146,0.296278 -0.66146,0.661457 v 9.260401 c 0,0.365179 0.29628,0.661457 0.66146,0.661457 h 9.2604 c 0.36518,0 0.66146,-0.296278 0.66146,-0.661457 z"
           style="font-size:12.3472px;line-height:1.25;font-family:FontAwesome;-inkscape-font-specification:FontAwesome;letter-spacing:0px;word-spacing:0px;fill:#ffffff;stroke-width:0.47247"
           id="path581"
           sodipodi:nodetypes="sccssssssss" />
        <path
           d="m 106.30227,93.933051 v -2.645829 h 5.29166 v 2.645829 z m 6.1736,0 v -2.866314 c 0,-0.36518 -0.29628,-0.661457 -0.66146,-0.661457 h -5.73263 c -0.36518,0 -0.66145,0.296277 -0.66145,0.661457 v 2.866314 h -0.88195 v -8.819429 h 0.88195 v 2.866315 c 0,0.365179 0.29627,0.661457 0.66145,0.661457 h 3.96875 c 0.36518,0 0.66145,-0.296278 0.66145,-0.661457 v -2.866315 c 0.13781,0 0.40652,0.110243 0.50299,0.206706 l 1.93614,1.93614 c 0.0896,0.08957 0.2067,0.372069 0.2067,0.502983 v 6.1736 z m -2.64583,-6.394086 c 0,0.117133 -0.10335,0.220486 -0.22048,0.220486 h -1.32292 c -0.11713,0 -0.22048,-0.103353 -0.22048,-0.220486 v -2.204857 c 0,-0.117133 0.10335,-0.220486 0.22048,-0.220486 h 1.32292 c 0.11713,0 0.22048,0.103353 0.22048,0.220486 z m 4.40972,0.220486 c 0,-0.36518 -0.20671,-0.868163 -0.46854,-1.129989 l -1.92925,-1.929251 c -0.26182,-0.261826 -0.76481,-0.468532 -1.12999,-0.468532 h -6.39408 c -0.36518,0 -0.66146,0.296278 -0.66146,0.661457 v 9.260401 c 0,0.365179 0.29628,0.661457 0.66146,0.661457 h 9.2604 c 0.36518,0 0.66146,-0.296278 0.66146,-0.661457 z"
           style="font-size:12.3472px;line-height:1.25;font-family:FontAwesome;-inkscape-font-specification:FontAwesome;letter-spacing:0px;word-spacing:0px;fill:#000000;stroke-width:0.47247"
           id="path583" />
      </g>
    </g>
    <path
       d="m 114.10748,92.431692 c 0,1.244452 -1.00872,2.254024 -2.24896,2.254024 -0.45061,0 -0.87229,-0.135984 -1.22783,-0.366743 l 3.11712,-3.102887 c 0.22738,0.350259 0.35967,0.76645 0.35967,1.215606 z m -4.12997,1.232091 c -0.23152,-0.354382 -0.36795,-0.774692 -0.36795,-1.232091 0,-1.24033 1.00873,-2.249902 2.24896,-2.249902 0.45889,0 0.8847,0.135983 1.24024,0.374984 z m 5.05601,-1.232091 c 0,-1.751297 -1.42213,-3.172939 -3.175,-3.172939 -1.75286,0 -3.175,1.421642 -3.175,3.172939 0,1.755419 1.42214,3.177061 3.175,3.177061 1.75287,0 3.175,-1.421642 3.175,-3.177061 z"
       id="path34947"
       style="font-size:10.5833px;line-height:1.25;font-family:FontAwesome;-inkscape-font-specification:'FontAwesome, Normal';letter-spacing:0px;word-spacing:0px;stroke-width:0.264583" />
  </g>
</svg>
