<?xml version="1.0" encoding="UTF-8" standalone="no"?>
<!-- Created with Inkscape (http://www.inkscape.org/) -->

<svg
   width="48"
   height="48"
   viewBox="0 0 12.7 12.7"
   version="1.1"
   id="svg4290"
   inkscape:version="1.1.1 (3bf5ae0d25, 2021-09-20)"
   sodipodi:docname="arinc665_media_set_view.svg"
   xmlns:inkscape="http://www.inkscape.org/namespaces/inkscape"
   xmlns:sodipodi="http://sodipodi.sourceforge.net/DTD/sodipodi-0.dtd"
   xmlns="http://www.w3.org/2000/svg"
   xmlns:svg="http://www.w3.org/2000/svg">
  <sodipodi:namedview
     id="namedview4292"
     pagecolor="#ffffff"
     bordercolor="#666666"
     borderopacity="1.0"
     inkscape:pageshadow="2"
     inkscape:pageopacity="0.0"
     inkscape:pagecheckerboard="0"
     inkscape:document-units="px"
     showgrid="true"
     units="px"
     fit-margin-top="0"
     fit-margin-left="0"
     fit-margin-right="0"
     fit-margin-bottom="0"
     inkscape:zoom="9.1699221"
     inkscape:cx="81.625557"
     inkscape:cy="29.771245"
     inkscape:window-width="1920"
     inkscape:window-height="1171"
     inkscape:window-x="1920"
     inkscape:window-y="0"
     inkscape:window-maximized="1"
     inkscape:current-layer="layer1">
    <inkscape:grid
       type="xygrid"
       id="grid13"
       empspacing="8" />
  </sodipodi:namedview>
  <defs
     id="defs4287" />
  <g
     inkscape:label="Ebene 1"
     inkscape:groupmode="layer"
     id="layer1"
     transform="translate(-102.5981,-83.173336)">
    <g
       id="g596"
       transform="matrix(0.69999998,0,0,0.69999998,29.932766,24.846169)"
       style="stroke-width:1.42857">
      <g
         id="g401"
         transform="matrix(0.80000101,0,0,0.80000139,23.37701,16.317042)"
         style="stroke-width:1.7857">
        <path
           d="m 114.23976,87.759451 c 0,-0.36518 -0.20671,-0.868163 -0.46854,-1.129989 l -1.92925,-1.929251 c -0.26182,-0.261826 -0.76481,-0.468532 -1.12999,-0.468532 h -6.39408 c -0.36518,0 -0.66146,0.296278 -0.66146,0.661457 v 9.260401 c 0,0.365179 0.29628,0.661457 0.66146,0.661457 h 9.2604 c 0.36518,0 0.66146,-0.296278 0.66146,-0.661457 z"
           style="font-size:12.3472px;line-height:1.25;font-family:FontAwesome;-inkscape-font-specification:FontAwesome;letter-spacing:0px;word-spacing:0px;fill:#ffffff;stroke-width:0.47247"
           id="path130"
           sodipodi:nodetypes="sccssssssss" />
        <path
           d="m 106.30227,93.933051 v -2.645829 h 5.29166 v 2.645829 z m 6.1736,0 v -2.866314 c 0,-0.36518 -0.29628,-0.661457 -0.66146,-0.661457 h -5.73263 c -0.36518,0 -0.66145,0.296277 -0.66145,0.661457 v 2.866314 h -0.88195 v -8.819429 h 0.88195 v 2.866315 c 0,0.365179 0.29627,0.661457 0.66145,0.661457 h 3.96875 c 0.36518,0 0.66145,-0.296278 0.66145,-0.661457 v -2.866315 c 0.13781,0 0.40652,0.110243 0.50299,0.206706 l 1.93614,1.93614 c 0.0896,0.08957 0.2067,0.372069 0.2067,0.502983 v 6.1736 z m -2.64583,-6.394086 c 0,0.117133 -0.10335,0.220486 -0.22048,0.220486 h -1.32292 c -0.11713,0 -0.22048,-0.103353 -0.22048,-0.220486 v -2.204857 c 0,-0.117133 0.10335,-0.220486 0.22048,-0.220486 h 1.32292 c 0.11713,0 0.22048,0.103353 0.22048,0.220486 z m 4.40972,0.220486 c 0,-0.36518 -0.20671,-0.868163 -0.46854,-1.129989 l -1.92925,-1.929251 c -0.26182,-0.261826 -0.76481,-0.468532 -1.12999,-0.468532 h -6.39408 c -0.36518,0 -0.66146,0.296278 -0.66146,0.661457 v 9.260401 c 0,0.365179 0.29628,0.661457 0.66146,0.661457 h 9.2604 c 0.36518,0 0.66146,-0.296278 0.66146,-0.661457 z"
           style="font-size:12.3472px;line-height:1.25;font-family:FontAwesome;-inkscape-font-specification:FontAwesome;letter-spacing:0px;word-spacing:0px;fill:#000000;stroke-width:0.47247"
           id="path22" />
      </g>
      <g
         id="g579"
         transform="matrix(0.80000101,0,0,0.80000139,22.318677,17.375376)"
         style="stroke-width:1.7857">
        <path
           d="m 114.23976,87.759451 c 0,-0.36518 -0.20671,-0.868163 -0.46854,-1.129989 l -1.92925,-1.929251 c -0.26182,-0.261826 -0.76481,-0.468532 -1.12999,-0.468532 h -6.39408 c -0.36518,0 -0.66146,0.296278 -0.66146,0.661457 v 9.260401 c 0,0.365179 0.29628,0.661457 0.66146,0.661457 h 9.2604 c 0.36518,0 0.66146,-0.296278 0.66146,-0.661457 z"
           style="font-size:12.3472px;line-height:1.25;font-family:FontAwesome;-inkscape-font-specification:FontAwesome;letter-spacing:0px;word-spacing:0px;fill:#ffffff;stroke-width:0.47247"
           id="path575"
           sodipodi:nodetypes="sccssssssss" />
        <path
           d="m 106.30227,93.933051 v -2.645829 h 5.29166 v 2.645829 z m 6.1736,0 v -2.866314 c 0,-0.36518 -0.29628,-0.661457 -0.66146,-0.661457 h -5.73263 c -0.36518,0 -0.66145,0.296277 -0.66145,0.661457 v 2.866314 h -0.88195 v -8.819429 h 0.88195 v 2.866315 c 0,0.365179 0.29627,0.661457 0.66145,0.661457 h 3.96875 c 0.36518,0 0.66145,-0.296278 0.66145,-0.661457 v -2.866315 c 0.13781,0 0.40652,0.110243 0.50299,0.206706 l 1.93614,1.93614 c 0.0896,0.08957 0.2067,0.372069 0.2067,0.502983 v 6.1736 z m -2.64583,-6.394086 c 0,0.117133 -0.10335,0.220486 -0.22048,0.220486 h -1.32292 c -0.11713,0 -0.22048,-0.103353 -0.22048,-0.220486 v -2.204857 c 0,-0.117133 0.10335,-0.220486 0.22048,-0.220486 h 1.32292 c 0.11713,0 0.22048,0.103353 0.22048,0.220486 z m 4.40972,0.220486 c 0,-0.36518 -0.20671,-0.868163 -0.46854,-1.129989 l -1.92925,-1.929251 c -0.26182,-0.261826 -0.76481,-0.468532 -1.12999,-0.468532 h -6.39408 c -0.36518,0 -0.66146,0.296278 -0.66146,0.661457 v 9.260401 c 0,0.365179 0.29628,0.661457 0.66146,0.661457 h 9.2604 c 0.36518,0 0.66146,-0.296278 0.66146,-0.661457 z"
           style="font-size:12.3472px;line-height:1.25;font-family:FontAwesome;-inkscape-font-specification:FontAwesome;letter-spacing:0px;word-spacing:0px;fill:#000000;stroke-width:0.47247"
           id="path577" />
      </g>
      <g
         id="g585"
         transform="matrix(0.80000101,0,0,0.80000139,21.260343,18.433709)"
         style="stroke-width:1.7857">
        <path
           d="m 114.23976,87.759451 c 0,-0.36518 -0.20671,-0.868163 -0.46854,-1.129989 l -1.92925,-1.929251 c -0.26182,-0.261826 -0.76481,-0.468532 -1.12999,-0.468532 h -6.39408 c -0.36518,0 -0.66146,0.296278 -0.66146,0.661457 v 9.260401 c 0,0.365179 0.29628,0.661457 0.66146,0.661457 h 9.2604 c 0.36518,0 0.66146,-0.296278 0.66146,-0.661457 z"
           style="font-size:12.3472px;line-height:1.25;font-family:FontAwesome;-inkscape-font-specification:FontAwesome;letter-spacing:0px;word-spacing:0px;fill:#ffffff;stroke-width:0.47247"
           id="path581"
           sodipodi:nodetypes="sccssssssss" />
        <path
           d="m 106.30227,93.933051 v -2.645829 h 5.29166 v 2.645829 z m 6.1736,0 v -2.866314 c 0,-0.36518 -0.29628,-0.661457 -0.66146,-0.661457 h -5.73263 c -0.36518,0 -0.66145,0.296277 -0.66145,0.661457 v 2.866314 h -0.88195 v -8.819429 h 0.88195 v 2.866315 c 0,0.365179 0.29627,0.661457 0.66145,0.661457 h 3.96875 c 0.36518,0 0.66145,-0.296278 0.66145,-0.661457 v -2.866315 c 0.13781,0 0.40652,0.110243 0.50299,0.206706 l 1.93614,1.93614 c 0.0896,0.08957 0.2067,0.372069 0.2067,0.502983 v 6.1736 z m -2.64583,-6.394086 c 0,0.117133 -0.10335,0.220486 -0.22048,0.220486 h -1.32292 c -0.11713,0 -0.22048,-0.103353 -0.22048,-0.220486 v -2.204857 c 0,-0.117133 0.10335,-0.220486 0.22048,-0.220486 h 1.32292 c 0.11713,0 0.22048,0.103353 0.22048,0.220486 z m 4.40972,0.220486 c 0,-0.36518 -0.20671,-0.868163 -0.46854,-1.129989 l -1.92925,-1.929251 c -0.26182,-0.261826 -0.76481,-0.468532 -1.12999,-0.468532 h -6.39408 c -0.36518,0 -0.66146,0.296278 -0.66146,0.661457 v 9.260401 c 0,0.365179 0.29628,0.661457 0.66146,0.661457 h 9.2604 c 0.36518,0 0.66146,-0.296278 0.66146,-0.661457 z"
           style="font-size:12.3472px;line-height:1.25;font-family:FontAwesome;-inkscape-font-specification:FontAwesome;letter-spacing:0px;word-spacing:0px;fill:#000000;stroke-width:0.47247"
           id="path583" />
      </g>
    </g>
    <path
       d="m 114.50427,93.227478 c -0.70691,1.091389 -1.84791,1.852054 -3.17495,1.852054 -1.32702,0 -2.46802,-0.760665 -3.17494,-1.852054 0.39274,-0.607706 0.93016,-1.128595 1.57507,-1.459319 -0.16536,0.281115 -0.25217,0.603571 -0.25217,0.930161 0,1.02111 0.83094,1.852053 1.85204,1.852053 1.02112,0 1.85206,-0.830943 1.85206,-1.852053 0,-0.32659 -0.0868,-0.649046 -0.25218,-0.930161 0.64492,0.330724 1.18234,0.851613 1.57507,1.459319 z m -2.97652,-1.587475 c 0,0.107491 -0.091,0.198435 -0.19843,0.198435 -0.47127,0 -0.85988,0.3886 -0.85988,0.859882 0,0.10749 -0.091,0.198434 -0.19843,0.198434 -0.10752,0 -0.19844,-0.09096 -0.19844,-0.198434 0,-0.690387 0.56637,-1.256752 1.25675,-1.256752 0.10752,0 0.19843,0.09096 0.19843,0.198435 z m 3.50569,1.587475 c 0,-0.103347 -0.033,-0.198435 -0.0827,-0.28525 -0.76066,-1.248482 -2.15384,-2.095962 -3.62144,-2.095962 -1.46758,0 -2.86075,0.84748 -3.62142,2.095962 -0.0496,0.08681 -0.0827,0.181899 -0.0827,0.28525 0,0.103346 0.033,0.198434 0.0827,0.285249 0.76067,1.248483 2.15384,2.095963 3.62142,2.095963 1.4676,0 2.86078,-0.843346 3.62144,-2.095963 0.0496,-0.08681 0.0827,-0.181897 0.0827,-0.285249 z"
       style="font-size:10.5833px;line-height:1.25;font-family:FontAwesome;-inkscape-font-specification:FontAwesome;letter-spacing:0px;word-spacing:0px;stroke-width:0.264583"
       id="path5293" />
  </g>
</svg>
